# xmcd
#
# Track frame offsets: 
#        150
#        29540
#        48455
#        51410
#        68667
#        91525
#
# Disc length: 1765 seconds
#
# Revision: 1
# Processed by: cddbd v1.5.2PL0 Copyright (c) Steve Scherf et al.
# Submitted via: ExactAudioCopy v1.3
#
DISCID=4806e306
DTITLE=Dué le quartz - ロデオ
DYEAR=2002
DGENRE=visual kei
TTITLE0=0℃
TTITLE1=LILY FOR YOU
TTITLE2=いしのむくろ
TTITLE3=玩具修理者
TTITLE4=Rumor
TTITLE5=ロデオ
EXTD=
EXTT0=
EXTT1=
EXTT2=
EXTT3=
EXTT4=
EXTT5=
PLAYORDER=
